<svg id="Layer_1" data-name="Layer 1" xmlns="http://www.w3.org/2000/svg" viewBox="0 0 126.5 63.75"><defs><style>.cls-1{fill:#0b58ad;}.cls-2{fill:#f4a62f;}</style></defs><path class="cls-1" d="M8.86,45,5.23,62.13H7.87a10.91,10.91,0,0,0,6.34-1.72c1.68-1.16,3.12-4.8,3.59-6.88s.48-5.77-.68-6.88S14,45,11.36,45Zm-5-1.51H11a32,32,0,0,1,5.31.38,9.87,9.87,0,0,1,3.45,1.09A7.22,7.22,0,0,1,23,48.46a8.8,8.8,0,0,1,.24,5.09,12,12,0,0,1-2.47,5.12,13.54,13.54,0,0,1-4.84,3.52,15.53,15.53,0,0,1-4.07,1.18,39.58,39.58,0,0,1-5.65.37h-4A2.16,2.16,0,0,1,.1,60.89Zm24.22.74h5C31.74,50.82,30.35,57.11,29,63.74H26.17c-1.76,0-2-1.12-1.7-2.37ZM31.3,62c2.37,0,8,.06,10.6.06,3.34-.18,4.09-1.4,4.49-3.7.26-1.39-2.25-2.83-4.88-3.82-6.42-2.31-7.25-7.31-1.82-9.93a17.14,17.14,0,0,1,7.39-1.23,13.43,13.43,0,0,1,2.49.26c.94.16,2.21.42,3.9.87l-.64,1.7a40.18,40.18,0,0,0-7.2-.88,7.34,7.34,0,0,0-2.61.52c-2.78,1-1.34,3.86.94,5,2.88,1.48,6,2.21,7.09,3.79a4.37,4.37,0,0,1,.83,3.34c-.37,1.86-1.4,2.94-3.39,4a16.55,16.55,0,0,1-7.75,1.63c-2.2,0-7.54,0-9.79,0ZM79.17,45.36l-1.83,9.79C77,57,76.5,59,77.11,59.78c1.28,1.84,6.14,1.63,7.59.2a10.64,10.64,0,0,0,2.46-5.41l1.75-9.42,5.31,0L90.93,63.39l-4.78,0,.39-2.1c-2,1.74-4.43,2.41-7.92,2.41-2.83,0-4.47-.72-5.7-2.15s-1.5-3.52-1-6.28l1.92-10a43.88,43.88,0,0,0-5.31-.11A11.77,11.77,0,0,0,62,47.08c-4.58,3.37-5.59,14.32,3.72,14.61a19.14,19.14,0,0,0,3.81-.62l.2,0L69.47,63c-.45.09-2.11.53-2.47.57a16.74,16.74,0,0,1-2.76.21c-3.91,0-6.84-.91-8.84-2.8s-2.63-4.43-2-7.53a11.12,11.12,0,0,1,5-7.25,16.61,16.61,0,0,1,10-2.93c3.53,0,5.59,0,8.74.13,2.51.09,2.29,1.29,2.11,2M96.81,45l16,0c.59,2.15-.12,4.12-2.2,5.91l-12,11.09h12.88v1.81H93.62c.21-2.88.26-3.86,2.92-6.38L107.68,47H96.55l.26-2Zm23.6,18.61-1.54,0-.12-3.23,1.88.19,1.59.11-.3,3.14-1.51-.16ZM122,57.87l-2.65-.31c.14-1.44-.42-12.35-.47-13.58l-.17-2.2c.72,0,.61,0,3.77.35,1.91.16,2.22.32,2.8.32l-.76,2.76c-.64,2.16-2.35,11.89-2.52,12.66M62.81,30,61.73,37.6H60l.87-6a13.61,13.61,0,0,1-2.48,1.37l.5-1.81q3.51-2.1,4.47-4.39c0-.14,0-.2-.16-.2H59.36l.21-1.36h2c-.09-.41-.21-1.05-.36-1.93H63a17,17,0,0,0,.42,1.93h1.27a1,1,0,0,1,.53.1c.1.06.14.21.14.44a3.39,3.39,0,0,1-.3,1.16A9.12,9.12,0,0,1,62.81,30Zm.73,3.34c-.21-.94-.4-2-.57-3h1.49c.14.6.42,1.62.85,3Zm6.32-4.16-1,6.82h3.61l-.26,1.49h-8.9L63.58,36h3.48l1-6.82H65.22l.26-1.5H68.3L69,23.1h1.76l-.67,4.54h3.07l-.25,1.5ZM91.08,25H80.16L78.62,36.12H90l-.2,1.48H76.51l2-14h12.8ZM90,26q-1.85,2.33-3.92,4.63,1.59,2.24,3.49,4.59h-2.3c-.59-.76-1.37-1.86-2.38-3.3-1.13,1.22-2.24,2.32-3.28,3.3H79a64.3,64.3,0,0,0,5-4.67c-1-1.41-1.92-2.92-2.92-4.55h2c.68,1.09,1.39,2.19,2.13,3.27,1-1.09,1.91-2.19,2.79-3.27ZM108,26.5a1.08,1.08,0,0,1,.76.2,1.12,1.12,0,0,1,.15.87c-.33,2.95-.79,6.29-1.41,10h-3.22l-.44-1.45h2.11c.53-2.94.92-5.61,1.17-8,0-.14-.06-.21-.2-.21h-1.34a32.22,32.22,0,0,1-3.34,9.71h-2l.5-.8H99.49l-.12-.51c0-.21-.08-.37-.11-.48l-.52,1H93.66a61.19,61.19,0,0,0,3.16-7.21H94.71l.2-1.44h6.92l-.2,1.44H98.68c-.69,1.89-1.52,3.83-2.46,5.8h2.94c-.26-1.25-.48-2.38-.65-3.4h1.63c.24,1.33.55,2.67.93,4a26.74,26.74,0,0,0,2.74-8.14h-1.7l-.38-1.4H104c.1-.72.24-1.86.44-3.41h1.74c-.1.91-.25,2-.45,3.41Zm-6.17-1.07H95.85l.2-1.43h6Zm24,.42c.57,0,.81.36.72,1.07-.5,3.91-1,7.48-1.47,10.68h-5L119.58,36h3.74c.47-3,.87-5.82,1.17-8.35,0-.2,0-.29-.2-.29h-3.91a17.57,17.57,0,0,1-6,10.22h-2.8q5.7-4.57,6.85-10.22h-4.24l-.35-1.53h4.87c.12-1.36.2-2.28.22-2.76h1.95c-.09,1.18-.18,2.09-.27,2.76Z"/><path class="cls-2" d="M18.8,1.43A21.08,21.08,0,0,1,25,2.36a16.75,16.75,0,0,1,5,2.47c2.86,2.09,4.43,4.82,4.43,7.71,0,3.23-2,6.3-5.5,8.42l-1.19.73.69,1.21a4.1,4.1,0,0,1,.53,2,4.61,4.61,0,0,1-1.9,3.56,8.13,8.13,0,0,1-5,1.63,8.13,8.13,0,0,1-5-1.63,4.59,4.59,0,0,1-1.91-3.56,2.62,2.62,0,0,1,0-.28l.09-1.23L14,23.11A16.57,16.57,0,0,1,6.1,19a9,9,0,0,1-3-6.47c0-2.89,1.57-5.62,4.43-7.71a16.63,16.63,0,0,1,5-2.47,21.06,21.06,0,0,1,6.23-.93M18.8,0C9.36,0,1.7,5.61,1.7,12.54c0,5.62,5.05,10.39,12,12,0,.13,0,.26,0,.39,0,3.66,3.75,6.62,8.37,6.62s8.38-3,8.38-6.62a5.42,5.42,0,0,0-.73-2.71c3.78-2.3,6.19-5.77,6.19-9.65C35.91,5.61,28.25,0,18.8,0ZM31.7,34.12c1.8,0,3.31,1.07,3.31,2.33s-1.51,2.33-3.31,2.33-3.31-1.07-3.31-2.33,1.51-2.33,3.31-2.33m0-1.43c-2.62,0-4.75,1.68-4.75,3.76s2.13,3.76,4.75,3.76,4.75-1.68,4.75-3.76S34.32,32.69,31.7,32.69Z"/></svg>