<?xml version="1.0" encoding="utf-8"?>
<!-- Generator: Adobe Illustrator 26.1.0, SVG Export Plug-In . SVG Version: 6.00 Build 0)  -->
<svg version="1.1" id="Layer_1" xmlns="http://www.w3.org/2000/svg" xmlns:xlink="http://www.w3.org/1999/xlink" x="0px" y="0px"
	 width="245px" height="92px" viewBox="0 0 245 92" enable-background="new 0 0 245 92" xml:space="preserve">
<path fill="#0B58AD" d="M13.4,63.8L8.3,87.7H12c3.6,0,6.6-0.8,8.8-2.4c2.3-1.6,4.3-6.7,5-9.6c0.6-3,0.7-8.1-0.9-9.6
	c-1.7-1.6-4.3-2.3-8-2.3C16.8,63.8,13.4,63.8,13.4,63.8z M6.4,61.7h9.9c2.9,0,5.4,0.2,7.4,0.5c2.1,0.3,3.6,0.8,4.8,1.5
	c2.2,1.3,3.7,2.9,4.5,4.9c0.8,2,0.9,4.4,0.3,7.1c-0.6,2.7-1.8,5.1-3.4,7.1c-1.7,2-4,3.6-6.7,4.9c-1.6,0.7-3.5,1.3-5.7,1.6
	c-2.2,0.3-4.8,0.5-7.9,0.5H4.1c-2,0-3.6-1.7-3-4C1.1,86,6.4,61.7,6.4,61.7z M40.2,62.7h7c-1.9,9.2-3.9,18-5.8,27.3h-3.9
	c-2.5,0-2.7-1.6-2.4-3.3C35.1,86.7,40.2,62.7,40.2,62.7z M44.6,87.6c3.3,0,11.1,0.1,14.8,0.1c4.7-0.3,5.7-2,6.3-5.2
	c0.4-1.9-3.1-3.9-6.8-5.3C49.9,74,48.8,67,56.3,63.4c2.9-1.3,6.2-1.7,10.3-1.7c1.1,0,2.2,0.1,3.5,0.4c1.3,0.2,3.1,0.6,5.4,1.2
	l-0.9,2.4c-4.4-0.7-6.6-1.2-10-1.2c-1.5,0-2.7,0.4-3.6,0.7c-3.9,1.4-1.9,5.4,1.3,7c4,2.1,8.4,3.1,9.9,5.3c0.9,1.4,1.5,2.8,1.1,4.6
	c-0.5,2.6-1.9,4.1-4.7,5.6c-2.8,1.5-6.4,2.3-10.8,2.3c-3.1,0-10.5,0-13.6,0C44.1,90,44.6,87.6,44.6,87.6z M111.4,64.4L108.8,78
	c-0.5,2.6-1.2,5.3-0.3,6.5c1.8,2.6,8.6,2.3,10.6,0.3c1.6-1.6,2.8-4.4,3.4-7.5l2.4-13.1l7.4-0.1l-4.6,25.5l-6.7,0.1l0.5-2.9
	c-2.8,2.4-6.2,3.4-11,3.4c-4,0-6.2-1-8-3c-1.6-2-2.1-4.9-1.4-8.7l2.7-13.9c-2-0.3-5.8-0.1-7.4-0.1c-3.2,0-6.9,0.9-9,2.5
	c-6.4,4.7-7.8,20,5.2,20.4c1.1,0.1,4.1-0.6,5.3-0.9l0.3-0.1l-0.4,2.7c-0.6,0.1-2.9,0.7-3.4,0.8c-1.3,0.2-2.6,0.3-3.8,0.3
	c-5.5,0-9.5-1.3-12.3-3.9c-2.7-2.6-3.7-6.2-2.8-10.5c0.7-4.1,3.1-7.5,6.9-10.1c3.9-2.6,8-4.1,13.9-4.1c4.9,0,7.8,0,12.2,0.2
	C111.9,61.7,111.6,63.4,111.4,64.4 M135.9,63.8l22.2-0.1c0.8,3-0.2,5.7-3.1,8.2l-16.8,15.5h17.9l0,2.5h-24.8c0.3-4,0.4-5.4,4.1-8.9
	l15.5-14.5h-15.5L135.9,63.8L135.9,63.8z M168.8,89.8l-2.1-0.1l-0.2-4.5l2.6,0.3l2.2,0.1l-0.4,4.4L168.8,89.8L168.8,89.8z
	 M171.1,81.8l-3.7-0.4c0.2-2-0.6-17.2-0.7-18.9l-0.2-3.1c1,0,0.8,0,5.3,0.5c2.7,0.2,3.1,0.4,3.9,0.4l-1.1,3.9
	C173.7,67.2,171.3,80.7,171.1,81.8"/>
<path fill="#F4A62F" d="M27.2,3.2c3,0,5.9,0.4,8.7,1.3c2.6,0.8,5,2,7,3.4c4,2.9,6.2,6.7,6.2,10.7c0,4.5-2.8,8.8-7.7,11.7l-1.6,1
	l0.9,1.7c0.5,0.9,0.7,1.8,0.7,2.8c0,1.8-0.9,3.6-2.7,5c-1.8,1.5-4.3,2.3-7,2.3s-5.2-0.8-7-2.3c-1.7-1.4-2.7-3.1-2.7-5
	c0-0.1,0-0.3,0-0.4l0.1-1.7l-1.7-0.4c-4.4-1-8.3-3-11.1-5.7c-2.7-2.6-4.1-5.8-4.1-9c0-4,2.2-7.8,6.2-10.7c2-1.5,4.4-2.6,7-3.4
	C21.3,3.6,24.2,3.2,27.2,3.2 M27.2,1.2C14.1,1.2,3.4,9,3.4,18.6c0,7.8,7,14.5,16.7,16.7c0,0.2,0,0.4,0,0.5c0,5.1,5.2,9.2,11.7,9.2
	s11.7-4.1,11.7-9.2c0-1.3-0.4-2.6-1-3.8c5.3-3.2,8.6-8,8.6-13.5C51.1,9,40.4,1.2,27.2,1.2z M45.2,48.7c2.5,0,4.6,1.5,4.6,3.2
	c0,1.8-2.1,3.2-4.6,3.2c-2.5,0-4.6-1.5-4.6-3.2C40.6,50.2,42.7,48.7,45.2,48.7 M45.2,46.7c-3.7,0-6.6,2.3-6.6,5.2
	c0,2.9,3,5.2,6.6,5.2c3.7,0,6.6-2.3,6.6-5.2C51.8,49.1,48.9,46.7,45.2,46.7z"/>
<g>
	<path fill="#AAAAAA" d="M199.7,76.8c1,0.8,1.5,1.8,1.5,3.2v9h-1.9v-8.8c0-0.9-0.3-1.6-0.9-2.2c-0.6-0.5-1.5-0.8-2.5-0.8
		c-1.2,0-2.1,0.3-2.8,0.9c-0.7,0.6-1,1.4-1,2.4c0,0.3,0,0.7,0.1,1.2c0.1,0.5,0.1,0.8,0.2,0.9c0,0.2,0.1,0.5,0.2,0.8
		c0.2-1.1,0.6-2,1.2-2.7s1.3-1,2.1-1c0.7,0,1.2,0.2,1.6,0.5c0.4,0.4,0.6,0.9,0.6,1.5c0,0.6-0.2,1.1-0.6,1.5s-0.9,0.6-1.5,0.6
		c-0.3,0-0.7-0.1-1-0.2c-0.3-0.2-0.6-0.4-0.7-0.7c-0.3,0.5-0.6,1.1-0.8,1.8c-0.2,0.7-0.3,1.3-0.3,2v2.4h-1.9v-3.3c0-0.2,0-0.5-0.1-1
		c-0.1-0.4-0.2-0.8-0.3-1.3c-0.4-1.4-0.6-2.5-0.6-3.1c0-1.5,0.5-2.6,1.5-3.5c1-0.9,2.4-1.3,4.1-1.3C197.4,75.6,198.7,76,199.7,76.8z
		 M195.1,81c-0.2,0.2-0.3,0.4-0.3,0.7s0.1,0.5,0.3,0.7c0.2,0.2,0.4,0.3,0.7,0.3c0.3,0,0.5-0.1,0.7-0.3c0.2-0.2,0.3-0.4,0.3-0.7
		s-0.1-0.5-0.3-0.7c-0.2-0.2-0.4-0.3-0.7-0.3C195.5,80.8,195.2,80.9,195.1,81z"/>
	<path fill="#AAAAAA" d="M203.5,67.4c-0.1,1.2-0.6,2.2-1.3,3.1c-0.7,0.9-1.6,1.6-2.8,2c-1.1,0.5-2.4,0.7-3.8,0.7h-0.9v-0.9
		c0.4-0.2,0.8-0.4,1.1-0.6c0.4-0.3,0.7-0.6,0.9-0.9c-0.1,0-0.2,0-0.3,0c-0.6,0-1-0.2-1.3-0.5s-0.5-0.8-0.5-1.3c0-0.5,0.2-1,0.5-1.3
		c0.4-0.3,0.8-0.5,1.4-0.5c0.6,0,1,0.2,1.4,0.5c0.4,0.4,0.6,0.8,0.6,1.5c0,0.5-0.1,0.9-0.4,1.5c-0.2,0.5-0.5,1-0.9,1.3
		c1.2-0.2,2.2-0.7,3-1.5c0.8-0.8,1.3-1.8,1.4-3H203.5z M196.1,69.6c0.2,0.2,0.4,0.2,0.6,0.2c0.2,0,0.4-0.1,0.6-0.2s0.2-0.4,0.2-0.6
		c0-0.2-0.1-0.4-0.2-0.6s-0.4-0.2-0.6-0.2c-0.3,0-0.5,0.1-0.6,0.2s-0.2,0.4-0.2,0.6C195.8,69.3,195.9,69.5,196.1,69.6z"/>
	<path fill="#AAAAAA" d="M215.8,85.5c0.3,0.4,0.4,0.8,0.4,1.2c0,0.7-0.2,1.3-0.7,1.8c-0.5,0.4-1,0.7-1.7,0.7c-0.7,0-1.2-0.2-1.7-0.7
		c-0.4-0.4-0.7-1-0.7-1.7v-0.1c-0.6,0.2-1.2,0.6-1.8,1s-1,0.8-1.4,1.3h-2v-8.8c-0.2,0.1-0.4,0.1-0.7,0.1c-0.7,0-1.2-0.2-1.6-0.6
		c-0.4-0.4-0.6-1-0.6-1.7c0-0.7,0.2-1.2,0.7-1.6c0.5-0.4,1-0.6,1.7-0.6c0.7,0,1.3,0.2,1.8,0.7c0.5,0.4,0.7,1,0.7,1.7v9
		c0.4-0.4,1.2-1,2.5-1.6c0.8-0.4,1.5-0.7,1.9-1s0.7-0.6,0.8-0.9c0.2-0.3,0.2-0.7,0.2-1.1v-6.6h1.9v6.7c0,0.5-0.1,0.9-0.2,1.3
		c-0.2,0.4-0.4,0.7-0.7,0.9C215.2,84.9,215.5,85.1,215.8,85.5z M204.9,78.7c0.2,0.2,0.5,0.3,0.8,0.3c0.3,0,0.6-0.1,0.8-0.3
		s0.3-0.5,0.3-0.8s-0.1-0.6-0.3-0.8c-0.2-0.2-0.5-0.3-0.8-0.3c-0.3,0-0.6,0.1-0.8,0.3c-0.2,0.2-0.3,0.5-0.3,0.8
		S204.7,78.5,204.9,78.7z M214.6,87.6c0.2-0.2,0.3-0.5,0.3-0.8c0-0.3-0.1-0.6-0.3-0.8c-0.2-0.2-0.5-0.3-0.8-0.3
		c-0.3,0-0.6,0.1-0.8,0.3c-0.2,0.2-0.3,0.5-0.3,0.8c0,0.3,0.1,0.6,0.3,0.8c0.2,0.2,0.4,0.3,0.8,0.3
		C214.1,87.9,214.4,87.8,214.6,87.6z"/>
	<path fill="#AAAAAA" d="M230.2,79.1c-0.2,0.3-0.4,0.6-0.8,0.8c0.4,0.5,0.6,1.1,0.6,1.9v7.1h-1.9v-7.1c0-0.7-0.2-1-0.6-1
		c-0.3,0-0.6,0.3-1,0.9l-4.1,7.3h-1.7v-8.8c-0.2,0.1-0.4,0.1-0.7,0.1c-0.7,0-1.2-0.2-1.6-0.6c-0.4-0.4-0.6-1-0.6-1.7
		c0-0.7,0.2-1.2,0.7-1.6c0.5-0.4,1-0.6,1.7-0.6c0.7,0,1.3,0.2,1.8,0.7c0.5,0.4,0.7,1,0.7,1.7v6.2c0,0.5,0,0.9-0.1,1.3
		s-0.1,0.6-0.1,0.7l3-5.4c0.3-0.6,0.7-1,1.1-1.2c-0.2-0.2-0.4-0.5-0.5-0.8c-0.1-0.3-0.2-0.6-0.2-1c0-0.7,0.2-1.2,0.6-1.6
		c0.4-0.4,1-0.6,1.7-0.6c0.7,0,1.2,0.2,1.7,0.6c0.4,0.4,0.7,1,0.7,1.6C230.5,78.3,230.4,78.7,230.2,79.1z M219.4,78.7
		c0.2,0.2,0.5,0.3,0.8,0.3c0.3,0,0.6-0.1,0.8-0.3s0.3-0.5,0.3-0.8s-0.1-0.6-0.3-0.8c-0.2-0.2-0.5-0.3-0.8-0.3
		c-0.3,0-0.6,0.1-0.8,0.3c-0.2,0.2-0.3,0.5-0.3,0.8S219.1,78.5,219.4,78.7z M227.4,77.2c-0.2,0.2-0.3,0.5-0.3,0.8s0.1,0.6,0.3,0.8
		c0.2,0.2,0.4,0.3,0.8,0.3c0.3,0,0.6-0.1,0.8-0.3s0.3-0.5,0.3-0.8s-0.1-0.6-0.3-0.8c-0.2-0.2-0.5-0.3-0.8-0.3
		C227.8,76.9,227.6,77,227.4,77.2z"/>
	<path fill="#AAAAAA" d="M239.1,79.2c0-0.6-0.2-1.1-0.6-1.5c-0.4-0.4-1-0.6-1.7-0.6c-0.8,0-1.4,0.2-1.8,0.6c-0.5,0.4-0.7,1-0.7,1.7
		h-1.9c0-1.2,0.4-2.2,1.2-2.9c0.8-0.7,1.9-1.1,3.2-1.1c1.3,0,2.4,0.3,3.1,1c0.8,0.6,1.1,1.5,1.1,2.6v9.7h-1.9V79.2z"/>
</g>
<g>
	<path fill="#0B58AD" d="M87.5,48.9c0.6,0.6,0.7,1.1,0.7,1.9s-0.3,1.4-0.8,1.9c-0.6,0.6-1.1,0.7-1.9,0.7c-0.8,0-1.5-0.3-2.1-0.8
		c-0.6-0.6-0.8-1.1-0.8-1.9V38.2h2.2v10.2c0.3-0.1,0.6-0.1,0.7-0.1C86.4,48,86.9,48.3,87.5,48.9z M86.4,51.6
		c0.3-0.3,0.3-0.6,0.3-0.8c0-0.3-0.1-0.7-0.3-0.8c-0.3-0.3-0.6-0.4-0.8-0.4c-0.3,0-0.7,0.1-0.8,0.4c-0.3,0.3-0.3,0.6-0.3,0.8
		c0,0.4,0.1,0.7,0.3,0.8c0.3,0.3,0.6,0.4,0.8,0.4C85.8,52.1,86.2,51.8,86.4,51.6z"/>
	<path fill="#0B58AD" d="M98.6,39c1,0.8,1.4,1.9,1.4,3.3v8.2c0,0.8-0.3,1.5-0.8,1.9c-0.6,0.6-1.3,0.8-2.1,0.8s-1.5-0.3-1.9-0.7
		c-0.6-0.6-0.8-1.1-0.8-1.9s0.3-1.4,0.7-1.9c0.6-0.6,1.1-0.7,1.9-0.7c0.3,0,0.6,0,0.7,0.1v-5.6c0-1-0.3-1.7-0.8-2.2
		c-0.6-0.6-1.4-0.8-2.4-0.8c-0.8,0-1.7,0.3-2.2,0.7c-0.6,0.6-1,1.1-1.1,1.9h-2.2c0.1-1.4,0.7-2.5,1.7-3.2s2.4-1.3,3.9-1.3
		C96.4,37.9,97.8,38.3,98.6,39z M98,51.6c0.3-0.3,0.3-0.6,0.3-0.8c0-0.3-0.1-0.7-0.3-0.8c-0.3-0.3-0.6-0.4-0.8-0.4
		c-0.4,0-0.7,0.1-0.8,0.4c-0.3,0.3-0.3,0.6-0.3,0.8c0,0.4,0.1,0.7,0.3,0.8c0.3,0.3,0.6,0.4,0.8,0.4C97.5,51.9,97.8,51.8,98,51.6z"/>
	<path fill="#0B58AD" d="M98.9,31.8c0.4,0.4,0.6,0.8,0.6,1.4c0,0.6-0.1,1.1-0.6,1.5c-0.4,0.4-1,0.6-1.7,0.6c-0.6,0-1.3-0.1-1.8-0.4
		c-0.7-0.3-1.3-0.7-1.8-1.3c-0.3,0.1-0.6,0.4-1,0.7c-0.4,0.4-0.7,0.7-1,1.1c-0.7-0.3-1.1-0.7-1.5-1.3c-0.4-0.6-0.6-1.3-0.6-1.9
		c0-1,0.3-1.7,1-2.4c0.7-0.7,1.5-1,2.6-1h2.6c1.1,0,1.8-0.8,1.8-2.5h1.7c0,1.3-0.3,2.2-0.8,2.9s-1.4,1.1-2.6,1.1H93
		c-0.6,0-1,0.1-1.3,0.4c-0.3,0.3-0.6,0.7-0.6,1.3c0,0.3,0,0.4,0.1,0.7c0,0.3,0.1,0.4,0.3,0.7c0.3-0.3,0.6-0.6,1-0.8
		c0.4-0.3,0.7-0.4,1.1-0.6c0.6,0.6,1.1,1,1.8,1.5c0-0.1,0-0.3,0-0.4c0-0.6,0.1-1,0.6-1.3c0.4-0.3,0.8-0.6,1.4-0.6
		C98,31.2,98.5,31.3,98.9,31.8z M98,33.7c0.1-0.1,0.3-0.4,0.3-0.6c0-0.3-0.1-0.4-0.3-0.6s-0.4-0.3-0.6-0.3c-0.3,0-0.4,0.1-0.6,0.3
		c-0.1,0.1-0.3,0.4-0.3,0.6c0,0.1,0.1,0.4,0.3,0.6c0.1,0.1,0.4,0.3,0.6,0.3C97.6,34,97.8,33.8,98,33.7z"/>
	<path fill="#0B58AD" d="M117,38.2V50c0,1.1-0.4,1.9-1.4,2.6s-2.4,1-4,1s-3.1-0.3-4-1s-1.4-1.5-1.4-2.6v-7c-0.3,0.1-0.6,0.1-0.7,0.1
		c-0.8,0-1.4-0.3-1.9-0.7c-0.6-0.6-0.7-1.1-0.7-1.9s0.3-1.4,0.8-1.9s1.3-0.7,1.9-0.7c0.8,0,1.5,0.3,2.1,0.8c0.6,0.6,0.8,1.1,0.8,1.9
		v9c0,0.6,0.3,1.1,0.8,1.4c0.6,0.4,1.4,0.6,2.4,0.6s1.8-0.1,2.4-0.6c0.6-0.3,0.8-0.8,0.8-1.4V38.2C114.9,38.2,117,38.2,117,38.2z
		 M104.4,41.4c0.3,0.3,0.6,0.4,0.8,0.4c0.4,0,0.7-0.1,0.8-0.4c0.3-0.3,0.3-0.6,0.3-0.8s-0.1-0.7-0.3-0.8c-0.3-0.3-0.6-0.4-0.8-0.4
		c-0.4,0-0.7,0.1-0.8,0.4c-0.3,0.3-0.4,0.6-0.4,0.8S104.2,41.1,104.4,41.4z"/>
	<path fill="#0B58AD" d="M133.8,38.2V50c0,1.1-0.4,1.9-1.4,2.6s-2.4,1-4,1c-1.7,0-3.1-0.3-4-1c-1-0.7-1.4-1.5-1.4-2.6v-7
		c-0.3,0.1-0.6,0.1-0.7,0.1c-0.8,0-1.4-0.3-1.9-0.7c-0.6-0.6-0.7-1.1-0.7-1.9s0.3-1.4,0.8-1.9c0.6-0.6,1.3-0.7,1.9-0.7
		c0.8,0,1.5,0.3,2.1,0.8c0.6,0.6,0.8,1.1,0.8,1.9v9c0,0.6,0.3,1.1,0.8,1.4c0.6,0.4,1.4,0.6,2.4,0.6c1,0,1.8-0.1,2.4-0.6
		c0.6-0.3,0.8-0.8,0.8-1.4V38.2C131.7,38.2,133.8,38.2,133.8,38.2z M121.3,41.4c0.3,0.3,0.6,0.4,0.8,0.4c0.4,0,0.7-0.1,0.8-0.4
		c0.3-0.3,0.3-0.6,0.3-0.8s-0.1-0.7-0.3-0.8c-0.3-0.3-0.6-0.4-0.8-0.4c-0.4,0-0.7,0.1-0.8,0.4c-0.3,0.3-0.4,0.6-0.4,0.8
		S121,41.1,121.3,41.4z"/>
	<path fill="#0B58AD" d="M147.6,39c1.1,0.8,1.7,1.9,1.7,3.2v7.4c0,1.1-0.4,2.1-1.4,2.8s-2.4,1-4,1c-1.7,0-3.1-0.3-4-1
		c-1-0.7-1.4-1.5-1.4-2.8v-4.2c0-0.8,0.3-1.4,0.8-1.9s1.3-0.8,1.9-0.8c0.8,0,1.5,0.3,1.9,0.7c0.6,0.6,0.8,1.1,0.8,1.9
		c0,0.8-0.3,1.4-0.7,1.9c-0.6,0.6-1.1,0.7-1.9,0.7c-0.3,0-0.4,0-0.7-0.1v1.5c0,0.7,0.3,1.3,0.8,1.5c0.6,0.4,1.4,0.6,2.4,0.6
		s1.8-0.1,2.4-0.6c0.6-0.4,0.8-1,0.8-1.7V42c0-0.8-0.3-1.5-1-1.9c-0.7-0.6-1.5-0.7-2.8-0.7c-1.1,0-2.1,0.3-2.8,0.7
		c-0.7,0.4-1.3,1.1-1.4,1.8H137c0.1-1.4,0.8-2.4,1.9-3.2c1.1-0.8,2.6-1.1,4.5-1.1C145,37.9,146.4,38.3,147.6,39z M140.3,44.5
		c-0.3,0.3-0.3,0.6-0.3,0.8c0,0.3,0.1,0.7,0.3,0.8c0.3,0.3,0.6,0.3,0.8,0.3c0.3,0,0.7-0.1,0.8-0.3c0.3-0.3,0.3-0.6,0.3-0.8
		c0-0.3-0.1-0.7-0.3-0.8c-0.3-0.3-0.6-0.3-0.8-0.3C140.9,44.1,140.6,44.3,140.3,44.5z"/>
	<path fill="#0B58AD" d="M154.9,40.1c-0.3,0.3-0.6,0.7-0.6,1.1c1.9,0.3,3.6,0.7,5,1.3c1.4,0.6,2.1,1.4,2.1,2.2v5.8
		c0,0.8-0.3,1.5-0.8,1.9s-1.3,0.8-2.1,0.8s-1.5-0.3-1.9-0.7c-0.6-0.6-0.8-1.1-0.8-1.9c0-0.8,0.3-1.4,0.7-1.9
		c0.6-0.6,1.1-0.7,1.9-0.7c0.3,0,0.6,0,0.7,0.1V45c0-0.6-0.7-1-1.9-1.4c-1.3-0.4-3.1-0.8-5.3-1.1c0-1.5,0.4-2.8,1-3.5
		s1.5-1.3,2.8-1.3c0.4,0,0.8,0,1.3,0.1c0.4,0.1,1,0.3,1.7,0.4c0.7,0.3,1.3,0.3,1.5,0.3s0.4-0.1,0.6-0.3s0.3-0.4,0.4-0.7l1.7,0.4
		c-0.3,0.7-0.6,1.3-1,1.7s-0.8,0.6-1.4,0.6c-0.3,0-0.6,0-1-0.1c-0.4-0.1-0.8-0.1-1.1-0.3c-0.1,0-0.4-0.1-1-0.3
		c-0.6-0.1-1-0.1-1.4-0.1C155.6,39.7,155.2,39.8,154.9,40.1z M159.2,51.6c0.3-0.3,0.3-0.6,0.3-0.8c0-0.3-0.1-0.7-0.3-0.8
		c-0.3-0.3-0.6-0.4-0.8-0.4c-0.3,0-0.7,0.1-0.8,0.4c-0.3,0.3-0.3,0.6-0.3,0.8c0,0.4,0.1,0.7,0.3,0.8c0.3,0.3,0.6,0.4,0.8,0.4
		C158.7,52.1,159.1,51.8,159.2,51.6z"/>
	<path fill="#0B58AD" d="M163.7,27.7c0,0.7-0.1,1.3-0.6,1.7c-0.4,0.4-1.1,0.7-1.9,1.1c-0.1,0-0.3,0.1-0.4,0.1
		c-0.1,0-0.3,0.1-0.4,0.1l-0.7,0.3c0.3,0.3,0.6,0.4,0.7,0.8c0.1,0.4,0.3,0.7,0.3,1.1c0,0.7-0.3,1.3-0.7,1.7c-0.4,0.4-1,0.7-1.7,0.7
		c-0.7,0-1.3-0.3-1.7-0.7s-0.7-1-0.7-1.8c0-0.7,0.1-1.3,0.6-1.7c0.4-0.4,0.8-0.7,1.3-0.8c0.4-0.1,1.1-0.4,2.2-0.8
		c0.7-0.3,1.1-0.4,1.5-0.7c0.3-0.3,0.6-0.6,0.6-1h1.7V27.7z M159,33.6c0.1-0.1,0.3-0.4,0.3-0.7s-0.1-0.6-0.3-0.7
		c-0.1-0.1-0.4-0.3-0.7-0.3c-0.3,0-0.6,0.1-0.7,0.3s-0.3,0.4-0.3,0.7s0.1,0.6,0.3,0.7s0.4,0.3,0.7,0.3C158.4,34,158.7,33.8,159,33.6
		z"/>
	<path fill="#0B58AD" d="M175.6,39.3c1.1,1,1.7,2.2,1.7,3.9v10h-2.2v-9.9c0-1.1-0.3-2.1-1-2.6c-0.7-0.7-1.7-1-2.8-1
		c-1,0-1.7,0.1-2.4,0.6c-0.7,0.4-1.1,0.8-1.4,1.4s-0.4,1.1-0.4,1.7c0,0.4,0,0.8,0.1,1.3c0.1,0.4,0.3,1.1,0.4,1.8s0.3,1.3,0.4,1.7
		c0.1,0.4,0.1,0.8,0.1,1.1v0.6c0.4-0.6,1-1.3,1.9-2.1l0.6-0.6c-0.6-0.1-1.1-0.3-1.4-0.7c-0.4-0.4-0.6-1-0.6-1.5
		c0-0.7,0.3-1.3,0.7-1.7c0.4-0.4,1-0.7,1.7-0.7c0.7,0,1.3,0.3,1.7,0.7c0.4,0.4,0.7,1,0.7,1.7s-0.1,1.3-0.6,1.8
		c-0.4,0.6-1,1.3-1.8,2.1s-1.5,1.7-1.9,2.2c-0.4,0.7-0.7,1.4-0.8,2.1h-2.2v-3.6c0-0.4-0.1-1.3-0.6-2.5c-0.3-0.8-0.4-1.5-0.6-2.1
		c-0.1-0.6-0.1-1.1-0.1-1.7c0-1,0.3-1.8,0.7-2.6c0.6-0.8,1.3-1.4,2.2-1.9c1-0.4,2.1-0.7,3.5-0.7C173.1,37.9,174.5,38.3,175.6,39.3z
		 M170.4,45.5c0.3,0.3,0.4,0.3,0.8,0.3c0.3,0,0.6-0.1,0.8-0.3c0.1-0.1,0.3-0.4,0.3-0.8s-0.1-0.6-0.3-0.8c-0.1-0.1-0.4-0.3-0.8-0.3
		c-0.3,0-0.6,0.1-0.8,0.3c-0.1,0.1-0.3,0.4-0.3,0.8C170.1,45.1,170.1,45.2,170.4,45.5z"/>
</g>
</svg>
