<?xml version="1.0" encoding="utf-8"?>
<!-- Generator: Adobe Illustrator 26.1.0, SVG Export Plug-In . SVG Version: 6.00 Build 0)  -->
<svg version="1.0" id="Layer_2_00000057122791947662894310000009035366533887329155_"
	 xmlns="http://www.w3.org/2000/svg" xmlns:xlink="http://www.w3.org/1999/xlink" x="0px" y="0px" width="129px" height="66px"
	 viewBox="0 0 129 66" enable-background="new 0 0 129 66" xml:space="preserve">
<path fill="#0B58AD" d="M10,45.8L6.4,63H9c2.6,0,4.7-0.6,6.3-1.7c1.7-1.2,3.1-4.8,3.6-6.9c0.4-2.2,0.5-5.8-0.7-6.9
	c-1.2-1.1-3.1-1.7-5.8-1.7C12.5,45.8,10,45.8,10,45.8z M5,44.3h7.1c2.1,0,3.9,0.1,5.3,0.4c1.5,0.2,2.6,0.6,3.5,1.1
	c1.6,0.9,2.6,2.1,3.2,3.5c0.6,1.5,0.6,3.2,0.2,5.1c-0.4,2-1.3,3.7-2.5,5.1C20.6,60.9,19,62.1,17,63c-1.1,0.5-2.5,0.9-4.1,1.2
	c-1.6,0.2-3.5,0.4-5.7,0.4h-4c-1.5,0-2.6-1.2-2.1-2.9C1.2,61.7,5,44.3,5,44.3z M29.2,45h5c-1.4,6.6-2.8,12.9-4.1,19.6h-2.8
	c-1.8,0-2-1.1-1.7-2.4C25.6,62.2,29.2,45,29.2,45z M32.4,62.9c2.4,0,8,0.1,10.6,0.1c3.3-0.2,4.1-1.4,4.5-3.7
	c0.3-1.4-2.2-2.8-4.9-3.8c-6.4-2.3-7.3-7.3-1.8-9.9c2.1-1,4.5-1.2,7.4-1.2c0.8,0,1.6,0.1,2.5,0.3s2.2,0.4,3.9,0.9L54,47.1
	c-3.2-0.5-4.7-0.9-7.2-0.9c-1.1,0-1.9,0.3-2.6,0.5c-2.8,1-1.3,3.9,0.9,5.1c2.9,1.5,6,2.2,7.1,3.8c0.6,1,1.1,2,0.8,3.3
	c-0.4,1.9-1.4,2.9-3.4,4s-4.6,1.6-7.8,1.6c-2.2,0-7.5,0-9.8,0C32.1,64.6,32.4,62.9,32.4,62.9z M80.3,46.2L78.5,56
	c-0.4,1.9-0.8,3.8-0.2,4.6c1.3,1.8,6.1,1.6,7.6,0.2c1.2-1.2,2-3.1,2.5-5.4l1.7-9.4h5.3l-3.3,18.3h-4.8l0.4-2.1
	c-2,1.7-4.4,2.4-7.9,2.4c-2.8,0-4.5-0.7-5.7-2.2c-1.2-1.4-1.5-3.5-1-6.3l1.9-9.9c-1.4-0.2-4.2-0.1-5.3-0.1c-2.3,0-4.9,0.7-6.5,1.8
	c-4.6,3.4-5.6,14.3,3.7,14.6c0.8,0.1,2.9-0.4,3.8-0.6h0.2l-0.3,1.9c-0.4,0.1-2.1,0.5-2.5,0.6c-1,0.2-1.9,0.2-2.8,0.2
	c-3.9,0-6.8-0.9-8.8-2.8c-1.9-1.9-2.6-4.4-2-7.5c0.5-2.9,2.2-5.4,5-7.2c2.8-1.9,5.7-2.9,10-2.9c3.5,0,5.6,0,8.7,0.1
	C80.7,44.3,80.5,45.5,80.3,46.2 M98,45.8h15.9c0.6,2.1-0.1,4.1-2.2,5.9l-12,11.1h12.9v1.8H94.8c0.2-2.9,0.3-3.9,2.9-6.4l11.1-10.4
	H97.7L98,45.8L98,45.8z M121.6,64.4l-1.5-0.1l-0.1-3.2l1.9,0.2l1.6,0.1l-0.3,3.1L121.6,64.4L121.6,64.4z M123.2,58.7l-2.7-0.3
	c0.1-1.4-0.4-12.3-0.5-13.6l-0.2-2.2c0.7,0,0.6,0,3.8,0.4c1.9,0.2,2.2,0.3,2.8,0.3l-0.8,2.8C125,48.2,123.3,57.9,123.2,58.7"/>
<path fill="#F4A62F" d="M20,2.3c2.2,0,4.3,0.3,6.2,0.9c1.9,0.6,3.6,1.4,5,2.5c2.9,2.1,4.4,4.8,4.4,7.7c0,3.2-2,6.3-5.5,8.4l-1.2,0.7
	l0.7,1.2c0.4,0.6,0.5,1.3,0.5,2c0,1.3-0.7,2.6-1.9,3.6c-1.3,1-3.1,1.6-5,1.6s-3.7-0.6-5-1.6c-1.2-1-1.9-2.2-1.9-3.6
	c0-0.1,0-0.2,0-0.3l0.1-1.2l-1.2-0.3c-3.2-0.7-6-2.2-7.9-4.1s-3-4.1-3-6.5c0-2.9,1.6-5.6,4.4-7.7c1.4-1.1,3.1-1.9,5-2.5
	C15.7,2.6,17.8,2.3,20,2.3 M20,0.8c-9.4,0-17.1,5.6-17.1,12.5c0,5.6,5.1,10.4,12,12c0,0.1,0,0.3,0,0.4c0,3.7,3.8,6.6,8.4,6.6
	s8.4-3,8.4-6.6c0-1-0.3-1.9-0.7-2.7c3.8-2.3,6.2-5.8,6.2-9.7C37.1,6.4,29.4,0.8,20,0.8z M32.9,34.9c1.8,0,3.3,1.1,3.3,2.3
	s-1.5,2.3-3.3,2.3s-3.3-1.1-3.3-2.3S31.1,34.9,32.9,34.9 M32.9,33.5c-2.6,0-4.7,1.7-4.7,3.8s2.1,3.8,4.7,3.8s4.7-1.7,4.7-3.8
	S35.5,33.5,32.9,33.5z"/>
<g>
	<path fill="#0B58AD" d="M63.1,35.2c0.4,0.4,0.5,0.8,0.5,1.4c0,0.6-0.2,1-0.6,1.4c-0.4,0.4-0.8,0.5-1.4,0.5c-0.6,0-1.1-0.2-1.5-0.6
		c-0.4-0.4-0.6-0.8-0.6-1.4v-9h1.6v7.3c0.2-0.1,0.4-0.1,0.5-0.1C62.3,34.6,62.7,34.8,63.1,35.2z M62.3,37.2c0.2-0.2,0.2-0.4,0.2-0.6
		c0-0.2-0.1-0.5-0.2-0.6c-0.2-0.2-0.4-0.3-0.6-0.3s-0.5,0.1-0.6,0.3c-0.2,0.2-0.2,0.4-0.2,0.6c0,0.3,0.1,0.5,0.2,0.6
		c0.2,0.2,0.4,0.3,0.6,0.3S62.2,37.3,62.3,37.2z"/>
	<path fill="#0B58AD" d="M71.1,28.1c0.7,0.6,1,1.4,1,2.4v5.9c0,0.6-0.2,1.1-0.6,1.4c-0.4,0.4-0.9,0.6-1.5,0.6s-1.1-0.2-1.4-0.5
		c-0.4-0.4-0.6-0.8-0.6-1.4c0-0.6,0.2-1,0.5-1.4c0.4-0.4,0.8-0.5,1.4-0.5c0.2,0,0.4,0,0.5,0.1v-4c0-0.7-0.2-1.2-0.6-1.6
		s-1-0.6-1.7-0.6c-0.6,0-1.2,0.2-1.6,0.5c-0.4,0.4-0.7,0.8-0.8,1.4h-1.6c0.1-1,0.5-1.8,1.2-2.3s1.7-0.9,2.8-0.9
		C69.5,27.3,70.5,27.6,71.1,28.1z M70.7,37.2c0.2-0.2,0.2-0.4,0.2-0.6c0-0.2-0.1-0.5-0.2-0.6c-0.2-0.2-0.4-0.3-0.6-0.3
		c-0.3,0-0.5,0.1-0.6,0.3c-0.2,0.2-0.2,0.4-0.2,0.6c0,0.3,0.1,0.5,0.2,0.6c0.2,0.2,0.4,0.3,0.6,0.3C70.3,37.4,70.5,37.3,70.7,37.2z"
		/>
	<path fill="#0B58AD" d="M71.3,22.9c0.3,0.3,0.4,0.6,0.4,1s-0.1,0.8-0.4,1.1c-0.3,0.3-0.7,0.4-1.2,0.4c-0.4,0-0.9-0.1-1.3-0.3
		c-0.5-0.2-0.9-0.5-1.3-0.9c-0.2,0.1-0.4,0.3-0.7,0.5c-0.3,0.3-0.5,0.5-0.7,0.8c-0.5-0.2-0.8-0.5-1.1-0.9c-0.3-0.4-0.4-0.9-0.4-1.4
		c0-0.7,0.2-1.2,0.7-1.7s1.1-0.7,1.9-0.7h1.9c0.8,0,1.3-0.6,1.3-1.8h1.2c0,0.9-0.2,1.6-0.6,2.1s-1,0.8-1.9,0.8h-2
		c-0.4,0-0.7,0.1-0.9,0.3c-0.2,0.2-0.4,0.5-0.4,0.9c0,0.2,0,0.3,0.1,0.5c0,0.2,0.1,0.3,0.2,0.5c0.2-0.2,0.4-0.4,0.7-0.6
		c0.3-0.2,0.5-0.3,0.8-0.4c0.4,0.4,0.8,0.7,1.3,1.1c0-0.1,0-0.2,0-0.3c0-0.4,0.1-0.7,0.4-0.9c0.3-0.2,0.6-0.4,1-0.4
		C70.7,22.5,71,22.6,71.3,22.9z M70.7,24.3c0.1-0.1,0.2-0.3,0.2-0.4c0-0.2-0.1-0.3-0.2-0.4s-0.3-0.2-0.4-0.2c-0.2,0-0.3,0.1-0.4,0.2
		s-0.2,0.3-0.2,0.4s0.1,0.3,0.2,0.4s0.3,0.2,0.4,0.2C70.4,24.5,70.5,24.4,70.7,24.3z"/>
	<path fill="#0B58AD" d="M84.3,27.5V36c0,0.8-0.3,1.4-1,1.9s-1.7,0.7-2.9,0.7c-1.2,0-2.2-0.2-2.9-0.7s-1-1.1-1-1.9v-5
		c-0.2,0.1-0.4,0.1-0.5,0.1c-0.6,0-1-0.2-1.4-0.5c-0.4-0.4-0.5-0.8-0.5-1.4s0.2-1,0.6-1.4s0.9-0.5,1.4-0.5c0.6,0,1.1,0.2,1.5,0.6
		s0.6,0.8,0.6,1.4v6.5c0,0.4,0.2,0.8,0.6,1c0.4,0.3,1,0.4,1.7,0.4s1.3-0.1,1.7-0.4c0.4-0.2,0.6-0.6,0.6-1v-8.3
		C82.8,27.5,84.3,27.5,84.3,27.5z M75.3,29.8c0.2,0.2,0.4,0.3,0.6,0.3c0.3,0,0.5-0.1,0.6-0.3c0.2-0.2,0.2-0.4,0.2-0.6
		s-0.1-0.5-0.2-0.6c-0.2-0.2-0.4-0.3-0.6-0.3c-0.3,0-0.5,0.1-0.6,0.3C75.1,28.8,75,29,75,29.2S75.1,29.6,75.3,29.8z"/>
	<path fill="#0B58AD" d="M96.4,27.5V36c0,0.8-0.3,1.4-1,1.9s-1.7,0.7-2.9,0.7c-1.2,0-2.2-0.2-2.9-0.7s-1-1.1-1-1.9v-5
		c-0.2,0.1-0.4,0.1-0.5,0.1c-0.6,0-1-0.2-1.4-0.5c-0.4-0.4-0.5-0.8-0.5-1.4s0.2-1,0.6-1.4s0.9-0.5,1.4-0.5c0.6,0,1.1,0.2,1.5,0.6
		s0.6,0.8,0.6,1.4v6.5c0,0.4,0.2,0.8,0.6,1c0.4,0.3,1,0.4,1.7,0.4s1.3-0.1,1.7-0.4c0.4-0.2,0.6-0.6,0.6-1v-8.3
		C94.9,27.5,96.4,27.5,96.4,27.5z M87.4,29.8c0.2,0.2,0.4,0.3,0.6,0.3c0.3,0,0.5-0.1,0.6-0.3c0.2-0.2,0.2-0.4,0.2-0.6
		s-0.1-0.5-0.2-0.6c-0.2-0.2-0.4-0.3-0.6-0.3c-0.3,0-0.5,0.1-0.6,0.3c-0.2,0.2-0.3,0.4-0.3,0.6S87.2,29.6,87.4,29.8z"/>
	<path fill="#0B58AD" d="M106.3,28.1c0.8,0.6,1.2,1.4,1.2,2.3v5.3c0,0.8-0.3,1.5-1,2s-1.7,0.7-2.9,0.7c-1.2,0-2.2-0.2-2.9-0.7
		s-1-1.1-1-2v-3c0-0.6,0.2-1,0.6-1.4s0.9-0.6,1.4-0.6c0.6,0,1.1,0.2,1.4,0.5c0.4,0.4,0.6,0.8,0.6,1.4c0,0.6-0.2,1-0.5,1.4
		c-0.4,0.4-0.8,0.5-1.4,0.5c-0.2,0-0.3,0-0.5-0.1v1.1c0,0.5,0.2,0.9,0.6,1.1c0.4,0.3,1,0.4,1.7,0.4s1.3-0.1,1.7-0.4
		c0.4-0.3,0.6-0.7,0.6-1.2v-5.1c0-0.6-0.2-1.1-0.7-1.4c-0.5-0.4-1.1-0.5-2-0.5c-0.8,0-1.5,0.2-2,0.5s-0.9,0.8-1,1.3h-1.5
		c0.1-1,0.6-1.7,1.4-2.3c0.8-0.6,1.9-0.8,3.2-0.8C104.5,27.3,105.5,27.6,106.3,28.1z M101.1,32.1c-0.2,0.2-0.2,0.4-0.2,0.6
		s0.1,0.5,0.2,0.6c0.2,0.2,0.4,0.2,0.6,0.2s0.5-0.1,0.6-0.2c0.2-0.2,0.2-0.4,0.2-0.6s-0.1-0.5-0.2-0.6c-0.2-0.2-0.4-0.2-0.6-0.2
		C101.5,31.8,101.3,31.9,101.1,32.1z"/>
	<path fill="#0B58AD" d="M111.6,28.9c-0.2,0.2-0.4,0.5-0.4,0.8c1.4,0.2,2.6,0.5,3.6,0.9s1.5,1,1.5,1.6v4.2c0,0.6-0.2,1.1-0.6,1.4
		s-0.9,0.6-1.5,0.6s-1.1-0.2-1.4-0.5c-0.4-0.4-0.6-0.8-0.6-1.4c0-0.6,0.2-1,0.5-1.4c0.4-0.4,0.8-0.5,1.4-0.5c0.2,0,0.4,0,0.5,0.1
		v-2.3c0-0.4-0.5-0.7-1.4-1s-2.2-0.6-3.8-0.8c0-1.1,0.3-2,0.7-2.5s1.1-0.9,2-0.9c0.3,0,0.6,0,0.9,0.1s0.7,0.2,1.2,0.3
		c0.5,0.2,0.9,0.2,1.1,0.2s0.3-0.1,0.4-0.2s0.2-0.3,0.3-0.5l1.2,0.3c-0.2,0.5-0.4,0.9-0.7,1.2s-0.6,0.4-1,0.4c-0.2,0-0.4,0-0.7-0.1
		c-0.3-0.1-0.6-0.1-0.8-0.2c-0.1,0-0.3-0.1-0.7-0.2c-0.4-0.1-0.7-0.1-1-0.1C112.1,28.6,111.8,28.7,111.6,28.9z M114.7,37.2
		c0.2-0.2,0.2-0.4,0.2-0.6c0-0.2-0.1-0.5-0.2-0.6c-0.2-0.2-0.4-0.3-0.6-0.3s-0.5,0.1-0.6,0.3c-0.2,0.2-0.2,0.4-0.2,0.6
		c0,0.3,0.1,0.5,0.2,0.6c0.2,0.2,0.4,0.3,0.6,0.3S114.6,37.3,114.7,37.2z"/>
	<path fill="#0B58AD" d="M117.9,20c0,0.5-0.1,0.9-0.4,1.2c-0.3,0.3-0.8,0.5-1.4,0.8c-0.1,0-0.2,0.1-0.3,0.1c-0.1,0-0.2,0.1-0.3,0.1
		l-0.5,0.2c0.2,0.2,0.4,0.3,0.5,0.6s0.2,0.5,0.2,0.8c0,0.5-0.2,0.9-0.5,1.2c-0.3,0.3-0.7,0.5-1.2,0.5s-0.9-0.2-1.2-0.5
		c-0.3-0.3-0.5-0.7-0.5-1.3c0-0.5,0.1-0.9,0.4-1.2c0.3-0.3,0.6-0.5,0.9-0.6s0.8-0.3,1.6-0.6c0.5-0.2,0.8-0.3,1.1-0.5
		c0.2-0.2,0.4-0.4,0.4-0.7h1.2V20z M114.5,24.2c0.1-0.1,0.2-0.3,0.2-0.5s-0.1-0.4-0.2-0.5S114.2,23,114,23s-0.4,0.1-0.5,0.2
		s-0.2,0.3-0.2,0.5s0.1,0.4,0.2,0.5s0.3,0.2,0.5,0.2C114.1,24.5,114.3,24.4,114.5,24.2z"/>
	<path fill="#0B58AD" d="M126.5,28.3c0.8,0.7,1.2,1.6,1.2,2.8v7.2h-1.6v-7.1c0-0.8-0.2-1.5-0.7-1.9c-0.5-0.5-1.2-0.7-2-0.7
		c-0.7,0-1.2,0.1-1.7,0.4s-0.8,0.6-1,1s-0.3,0.8-0.3,1.2c0,0.3,0,0.6,0.1,0.9s0.2,0.8,0.3,1.3c0.1,0.5,0.2,0.9,0.3,1.2
		c0.1,0.3,0.1,0.6,0.1,0.8v0.4c0.3-0.4,0.7-0.9,1.4-1.5l0.4-0.4c-0.4-0.1-0.8-0.2-1-0.5c-0.3-0.3-0.4-0.7-0.4-1.1
		c0-0.5,0.2-0.9,0.5-1.2c0.3-0.3,0.7-0.5,1.2-0.5s0.9,0.2,1.2,0.5c0.3,0.3,0.5,0.7,0.5,1.2s-0.1,0.9-0.4,1.3
		c-0.3,0.4-0.7,0.9-1.3,1.5c-0.6,0.6-1.1,1.2-1.4,1.6c-0.3,0.5-0.5,1-0.6,1.5h-1.6v-2.6c0-0.3-0.1-0.9-0.4-1.8
		c-0.2-0.6-0.3-1.1-0.4-1.5c-0.1-0.4-0.1-0.8-0.1-1.2c0-0.7,0.2-1.3,0.5-1.9c0.4-0.6,0.9-1,1.6-1.4c0.7-0.3,1.5-0.5,2.5-0.5
		C124.7,27.3,125.7,27.6,126.5,28.3z M122.7,32.8c0.2,0.2,0.3,0.2,0.6,0.2c0.2,0,0.4-0.1,0.6-0.2c0.1-0.1,0.2-0.3,0.2-0.6
		s-0.1-0.4-0.2-0.6c-0.1-0.1-0.3-0.2-0.6-0.2c-0.2,0-0.4,0.1-0.6,0.2c-0.1,0.1-0.2,0.3-0.2,0.6C122.5,32.5,122.5,32.6,122.7,32.8z"
		/>
</g>
</svg>
